<svg xmlns="http://www.w3.org/2000/svg" viewBox="0 0 53 51"><path d="M4.7 41.7l23.2-23.2c1.2 2.4 3.2 4.4 5.6 5.6L10.3 47.3c-1.5 1.5-4.1 1.5-5.6 0-.7-.7-1.2-1.7-1.2-2.8.1-1 .5-2 1.2-2.8zm24-30.2c.6-4.7 4.4-8.5 9.2-9 .7-.1 1.4-.1 2.1 0l-5.4 5.4c-1.2 1.2-1.2 3.2 0 4.4l5.1 5.1c1.2 1.2 3.3 1.2 4.4 0l5.4-5.4c.1.7 0 1.4 0 2.1-.5 4.7-4.3 8.6-9 9.1-1.7.2-3.3 0-4.8-.5-3-1-5.4-3.4-6.4-6.4-.6-1.5-.8-3.1-.6-4.8zM3.3 48.7c1.1 1.1 2.6 1.8 4.3 1.8s3.1-.6 4.3-1.8l23.8-23.8c1.1.3 2.3.5 3.5.5.5 0 1.1 0 1.6-.1 5.6-.7 10.2-5.3 10.8-11 .2-1.6.1-3.2-.4-4.8-.1-.4-.4-.6-.7-.7-.4-.1-.7 0-1 .3l-6.8 6.8c-.4.4-1.1.4-1.5 0l-5.1-5.1c-.4-.4-.4-1.1 0-1.5l6.8-6.8c.3-.3.4-.6.3-1-.1-.4-.4-.6-.7-.7-1.6-.4-3.2-.6-4.8-.4-5.7.6-10.3 5.2-11 10.8-.2 1.8-.1 3.5.4 5.1L3.3 40.2c-1.1 1.2-1.8 2.7-1.8 4.3 0 1.6.6 3.1 1.8 4.2z"/><circle cx="7.8" cy="44.2" r="2.1"/></svg>